<svg width="24" height="24" viewBox="0 0 24 24" fill="none" xmlns="http://www.w3.org/2000/svg">
  <title>Restaurant (outlined)</title>
  <g transform="matrix(
          1 0
          0 1
          1 1
        )"><path fill-rule="evenodd" clip-rule="evenodd" d="M 10 7 L 10 0 L 8 0 L 8 7 L 6 7 L 6 0 L 4 0 L 4 7 L 2 7 L 2 0 L 0 0 L 0 7 C 0 9.300048828125 1.5 11.199951171875 3.5 11.800048828125 L 3.5 22 L 6.5 22 L 6.5 11.800048828125 C 8.5 11.0999755859375 10 9.199951171875 10 7 Z M 12 5 C 12 2.199951171875 14.20001220703125 0 17 0 C 19.79998779296875 0 22 2.199951171875 22 5 L 22 7 C 22 9.199951171875 20.5 11.0999755859375 18.5 11.699951171875 L 18.5 22 L 15.5 22 L 15.5 11.699951171875 C 13.5 11.0999755859375 12 9.199951171875 12 7 L 12 5 Z M 17 9 C 18.0999755859375 9 19 8.0999755859375 19 7 L 19 5 C 19 3.9000244140625 18.0999755859375 3 17 3 C 15.9000244140625 3 15 3.9000244140625 15 5 L 15 7 C 15 8.0999755859375 15.9000244140625 9 17 9 Z" fill="currentColor"/></g>
</svg>